<svg width="93" height="29" viewBox="0 0 93 29" fill="none" xmlns="http://www.w3.org/2000/svg">
<path d="M23.3729 13.7481C24.0302 13.0783 24.5427 12.3965 24.9032 11.6304C25.3367 10.7092 25.5358 9.69765 25.5358 8.48804C25.5358 6.00201 24.6392 4.02376 23.1075 2.67259C21.5839 1.32845 19.4771 0.644043 17.1158 0.644043H1.70776H1.20776V1.14404V28V28.5H1.70776H17.1158C18.5296 28.5 19.7692 28.4843 20.936 28.1926C22.1226 27.896 23.213 27.321 24.3662 26.2441C25.9823 24.7805 26.8318 22.8463 26.8318 20.656C26.8318 17.7792 25.4144 15.4957 23.3729 13.7481ZM56.0331 13.7481C56.6904 13.0783 57.2028 12.3965 57.5633 11.6304C57.9968 10.7092 58.1959 9.69765 58.1959 8.48804C58.1959 6.00201 57.2993 4.02376 55.7677 2.67259C54.244 1.32845 52.1372 0.644043 49.7759 0.644043H34.3679H33.8679V1.14404V28V28.5H34.3679H49.7759C51.1898 28.5 52.4293 28.4843 53.5962 28.1926C54.7828 27.896 55.8732 27.321 57.0264 26.2441C58.6425 24.7805 59.4919 22.8463 59.4919 20.656C59.4919 17.7792 58.0746 15.4957 56.0331 13.7481ZM66.9561 0.644043H66.4561V1.14404V28V28.5H66.9561H70.8801H71.3801V28V17.376H80.575L85.8383 28.2184L85.975 28.5H86.2881H90.7161H91.5216L91.1641 27.7782L85.8547 17.0565C87.6082 16.5344 89.0473 15.6415 90.0763 14.3901C91.2225 12.9962 91.8281 11.1959 91.8281 9.06404C91.8281 6.38443 90.8896 4.2617 89.267 2.81396C87.6519 1.373 85.4084 0.644043 82.8681 0.644043H66.9561ZM20.6118 8.52404C20.6118 9.6514 20.2486 10.43 19.6748 10.9339C19.091 11.4466 18.2238 11.732 17.1158 11.732H6.09576V5.53204H17.1158C18.2517 5.53204 19.1192 5.75807 19.6952 6.21218C20.2485 6.64843 20.6118 7.35885 20.6118 8.52404ZM21.9438 20.152C21.9438 21.0289 21.5994 21.8733 20.9742 22.4985C20.0486 23.4241 18.9411 23.54 17.5118 23.54H6.09576V16.728H17.1158C18.3955 16.728 19.6217 16.9237 20.512 17.4467C21.3623 17.9461 21.9438 18.7629 21.9438 20.152ZM53.2719 8.52404C53.2719 9.6514 52.9087 10.43 52.335 10.9339C51.7512 11.4466 50.8839 11.732 49.7759 11.732H38.7559V5.53204H49.7759C50.9118 5.53204 51.7794 5.75807 52.3553 6.21218C52.9086 6.64842 53.2719 7.35885 53.2719 8.52404ZM54.6039 20.152C54.6039 21.0289 54.2595 21.8733 53.6344 22.4985C52.7087 23.4241 51.6013 23.54 50.1719 23.54H38.7559V16.728H49.7759C51.0556 16.728 52.2819 16.9237 53.1722 17.4467C54.0224 17.9461 54.6039 18.7629 54.6039 20.152ZM86.9401 8.84804C86.9401 10.1496 86.5092 11.0227 85.8343 11.5814C85.144 12.1528 84.1298 12.452 82.8681 12.452H71.3801V5.53204H82.8681C84.0932 5.53204 85.1142 5.77572 85.8172 6.29046C86.4935 6.78568 86.9401 7.57892 86.9401 8.84804Z" fill="#F7F0E4" stroke="#F7F0E4"/>
</svg>
