<svg width="32" height="23" viewBox="0 0 32 23" fill="none" xmlns="http://www.w3.org/2000/svg">
<path fill-rule="evenodd" clip-rule="evenodd" d="M28.3248 1.29963C29.6741 1.66289 30.7379 2.72672 31.1012 4.07597C31.7758 6.54096 31.7499 11.6785 31.7499 11.6785C31.7499 11.6785 31.7499 16.7901 31.1012 19.2551C30.7379 20.6043 29.6741 21.6682 28.3248 22.0314C25.8599 22.6801 15.9999 22.6801 15.9999 22.6801C15.9999 22.6801 6.16596 22.6801 3.67503 22.0055C2.32577 21.6422 1.26194 20.5784 0.898679 19.2291C0.25 16.7901 0.25 11.6525 0.25 11.6525C0.25 11.6525 0.25 6.54096 0.898679 4.07597C1.26194 2.72672 2.35172 1.63694 3.67503 1.27368C6.14001 0.625 15.9999 0.625 15.9999 0.625C15.9999 0.625 25.8599 0.625 28.3248 1.29963ZM21.0596 11.4724L12.8603 16.1948V6.75L21.0596 11.4724Z" fill="#361312"/>
</svg>
