<svg width="32" height="32" viewBox="0 0 32 32" fill="none" xmlns="http://www.w3.org/2000/svg">
<path d="M16.0006 0.727295C11.8529 0.727295 11.3324 0.745432 9.70332 0.819568C8.07746 0.894022 6.96768 1.15143 5.99662 1.52911C4.99215 1.9192 4.14008 2.44102 3.2912 3.29025C2.44168 4.13916 1.91988 4.99125 1.52853 5.99543C1.1499 6.96684 0.892182 8.07698 0.819002 9.70225C0.746141 11.3313 0.727051 11.8522 0.727051 16C0.727051 20.1478 0.745505 20.6668 0.819321 22.2959C0.894091 23.9218 1.15149 25.0316 1.52884 26.0027C1.91924 27.0072 2.44104 27.8593 3.29025 28.7082C4.13881 29.5577 4.99088 30.0808 5.99471 30.4709C6.96641 30.8486 8.07651 31.106 9.70205 31.1805C11.3311 31.2546 11.8513 31.2727 15.9987 31.2727C20.1467 31.2727 20.6656 31.2546 22.2947 31.1805C23.9205 31.106 25.0316 30.8486 26.0033 30.4709C27.0074 30.0808 27.8582 29.5577 28.7068 28.7082C29.5563 27.8593 30.0781 27.0072 30.4695 26.003C30.8449 25.0316 31.1026 23.9215 31.179 22.2962C31.2522 20.6671 31.2713 20.1478 31.2713 16C31.2713 11.8522 31.2522 11.3317 31.179 9.70257C31.1026 8.07666 30.8449 6.96684 30.4695 5.99575C30.0781 4.99125 29.5563 4.13916 28.7068 3.29025C27.8573 2.4407 27.0078 1.91889 26.0023 1.52911C25.0287 1.15143 23.9183 0.894022 22.2924 0.819568C20.6634 0.745432 20.1448 0.727295 15.9958 0.727295H16.0006ZM14.6305 3.47957C15.0372 3.47893 15.4909 3.47957 16.0006 3.47957C20.0783 3.47957 20.5616 3.4942 22.1719 3.56739C23.6609 3.63548 24.4691 3.88429 25.0074 4.09334C25.7201 4.37016 26.2282 4.70107 26.7624 5.23561C27.297 5.77016 27.6279 6.27925 27.9053 6.99198C28.1144 7.5297 28.3635 8.33788 28.4313 9.82698C28.5044 11.437 28.5203 11.9206 28.5203 15.9965C28.5203 20.0724 28.5044 20.5561 28.4313 22.1661C28.3632 23.6552 28.1144 24.4633 27.9053 25.0011C27.6285 25.7138 27.297 26.2213 26.7624 26.7555C26.2279 27.2901 25.7204 27.621 25.0074 27.8978C24.4697 28.1078 23.6609 28.356 22.1719 28.4241C20.5619 28.4972 20.0783 28.5132 16.0006 28.5132C11.9226 28.5132 11.4393 28.4972 9.82932 28.4241C8.34027 28.3553 7.53212 28.1065 6.99345 27.8975C6.28075 27.6207 5.77167 27.2897 5.23714 26.7552C4.70261 26.2207 4.37171 25.7128 4.09427 24.9998C3.88523 24.4621 3.6361 23.6539 3.56833 22.1648C3.49515 20.5548 3.48051 20.0712 3.48051 15.9927C3.48051 11.9142 3.49515 11.4332 3.56833 9.82316C3.63642 8.33407 3.88523 7.52588 4.09427 6.98752C4.37108 6.27479 4.70261 5.7657 5.23714 5.23116C5.77167 4.69661 6.28075 4.3657 6.99345 4.08825C7.5318 3.87825 8.34027 3.63007 9.82932 3.56166C11.2382 3.49802 11.7842 3.47893 14.6305 3.47575V3.47957ZM24.1528 6.01548C23.141 6.01548 22.3201 6.83543 22.3201 7.84757C22.3201 8.85938 23.141 9.68029 24.1528 9.68029C25.1646 9.68029 25.9855 8.85938 25.9855 7.84757C25.9855 6.83575 25.1646 6.01484 24.1528 6.01484V6.01548ZM16.0006 8.15684C11.6693 8.15684 8.15764 11.6686 8.15764 16C8.15764 20.3314 11.6693 23.8416 16.0006 23.8416C20.3319 23.8416 23.8423 20.3314 23.8423 16C23.8423 11.6686 20.3315 8.15684 16.0003 8.15684H16.0006ZM16.0006 10.9091C18.812 10.9091 21.0913 13.1882 21.0913 16C21.0913 18.8115 18.812 21.0909 16.0006 21.0909C13.1889 21.0909 10.9098 18.8115 10.9098 16C10.9098 13.1882 13.1889 10.9091 16.0006 10.9091Z" fill="#361312"/>
</svg>
